<svg id="Layer_1" data-name="Layer 1" xmlns="http://www.w3.org/2000/svg" viewBox="0 0 64 64"><rect x="19.31" y="19.43" width="25.29" height="25.26" rx="2" style="fill:#50c6db"/><path d="M62,6a2,2,0,0,1-2-2,2,2,0,0,1,0-4h2a2,2,0,0,1,2,2V4A2,2,0,0,1,62,6Z" style="fill:#fff"/><path d="M52,4H48a2,2,0,0,1,0-4h4a2,2,0,0,1,0,4ZM40,4H36a2,2,0,0,1,0-4h4a2,2,0,0,1,0,4ZM28,4H24a2,2,0,0,1,0-4h4a2,2,0,0,1,0,4ZM16,4H12a2,2,0,0,1,0-4h4a2,2,0,0,1,0,4Z" style="fill:#fff"/><path d="M2,6A2,2,0,0,1,0,4V2A2,2,0,0,1,2,0H4A2,2,0,0,1,4,4,2,2,0,0,1,2,6Z" style="fill:#fff"/><path d="M2,54a2,2,0,0,1-2-2V48a2,2,0,0,1,4,0v4A2,2,0,0,1,2,54ZM2,42a2,2,0,0,1-2-2V36a2,2,0,0,1,4,0v4A2,2,0,0,1,2,42ZM2,30a2,2,0,0,1-2-2V24a2,2,0,0,1,4,0v4A2,2,0,0,1,2,30ZM2,18a2,2,0,0,1-2-2V12a2,2,0,0,1,4,0v4A2,2,0,0,1,2,18Z" style="fill:#fff"/><path d="M4,64H2a2,2,0,0,1-2-2V60a2,2,0,0,1,4,0,2,2,0,0,1,0,4Z" style="fill:#fff"/><path d="M52,64H48a2,2,0,0,1,0-4h4a2,2,0,0,1,0,4ZM40,64H36a2,2,0,0,1,0-4h4a2,2,0,0,1,0,4ZM28,64H24a2,2,0,0,1,0-4h4a2,2,0,0,1,0,4ZM16,64H12a2,2,0,0,1,0-4h4a2,2,0,0,1,0,4Z" style="fill:#fff"/><path d="M62,64H60a2,2,0,0,1,0-4,2,2,0,0,1,4,0v2A2,2,0,0,1,62,64Z" style="fill:#fff"/><path d="M62,54a2,2,0,0,1-2-2V48a2,2,0,0,1,4,0v4A2,2,0,0,1,62,54Zm0-12a2,2,0,0,1-2-2V36a2,2,0,0,1,4,0v4A2,2,0,0,1,62,42Zm0-12a2,2,0,0,1-2-2V24a2,2,0,0,1,4,0v4A2,2,0,0,1,62,30Zm0-12a2,2,0,0,1-2-2V12a2,2,0,0,1,4,0v4A2,2,0,0,1,62,18Z" style="fill:#fff"/><path d="M21.31,44.69H42.59a2,2,0,0,0,2-2V38.34l-5.17-4.88L34.9,36.53l-8.43-8.27-7.16,8.28v6.15A2,2,0,0,0,21.31,44.69Z" style="fill:#338199"/><circle cx="37.53" cy="26.46" r="2.36" style="fill:#fff"/><path d="M42.59,19.43a2,2,0,0,1,2,2V42.69a2,2,0,0,1-2,2H21.31a2,2,0,0,1-2-2V21.43a2,2,0,0,1,2-2H42.59m0-4H21.31a6,6,0,0,0-6,6V42.69a6,6,0,0,0,6,6H42.59a6,6,0,0,0,6-6V21.43a6,6,0,0,0-6-6Z" style="fill:#fff"/></svg>