<svg xmlns="http://www.w3.org/2000/svg" width="152.278" height="121.791" viewBox="0 0 152.278 121.791">
    <defs>
        <style>
            .cls-2{fill:none;stroke:#fcfeff;stroke-linecap:round;stroke-linejoin:round;stroke-width:6px}.cls-3{fill:#fff}
        </style>
    </defs>
    <g id="Group_16407" data-name="Group 16407" transform="translate(-173 -126)">
        <g id="Group_16406" data-name="Group 16406" transform="translate(-.222 -6)">
            <g id="Group_16403" data-name="Group 16403" transform="translate(6268.221 2688)">
                <path id="Path_7086" fill="#419564" d="M214.727 521.613a9.9 9.9 0 0 0-10.457 10.629l2.433 43.516c.338 6.086.241 11.067-.219 11.067h-25.2a11.119 11.119 0 0 1-11.084-11.086v-70.467a11.119 11.119 0 0 1 11.086-11.086h99.327a11.119 11.119 0 0 1 11.087 11.086V523.7c0 .532-4.986.768-11.078.527z" data-name="Path 7086" transform="translate(-6265.196 -3050.186)"/>
                <g id="Group_16400" data-name="Group 16400" transform="translate(-5978.98 -2470.468)">
                    <path id="Line_441" d="M0 0L0 33.259" class="cls-2" data-name="Line 441" transform="translate(16.629)"/>
                    <path id="Line_442" d="M33.259 0L0 0" class="cls-2" data-name="Line 442" transform="translate(0 16.629)"/>
                </g>
                <path id="Path_7087" d="M248.792 591.967h-66.526v-88.044H292.7v43.263" class="cls-2" data-name="Path 7087" transform="translate(-6242.813 -3031.937)"/>
                <path id="Line_443" d="M0 0L108.436 0" class="cls-2" data-name="Line 443" transform="translate(-6058.547 -2501.462)"/>
            </g>
        </g>
        <circle id="Ellipse_3396" cx="4" cy="4" r="4" class="cls-3" data-name="Ellipse 3396" transform="translate(232 164)"/>
        <circle id="Ellipse_3397" cx="4" cy="4" r="4" class="cls-3" data-name="Ellipse 3397" transform="translate(218 164)"/>
        <circle id="Ellipse_3398" cx="4" cy="4" r="4" class="cls-3" data-name="Ellipse 3398" transform="translate(246 164)"/>
    </g>
</svg>
